<svg width="1600" height="900" viewBox="0 0 1600 900" fill="none" xmlns="http://www.w3.org/2000/svg">
  <defs>
    <linearGradient id="bg3" x1="0" y1="0" x2="1600" y2="900" gradientUnits="userSpaceOnUse">
      <stop stop-color="#3F1D2E"/>
      <stop offset="0.55" stop-color="#7C2D12"/>
      <stop offset="1" stop-color="#1F2937"/>
    </linearGradient>
    <linearGradient id="lock" x1="0" y1="0" x2="1" y2="1">
      <stop stop-color="#FDE68A"/>
      <stop offset="1" stop-color="#FDBA74"/>
    </linearGradient>
  </defs>

  <rect width="1600" height="900" fill="url(#bg3)"/>
  <circle cx="250" cy="180" r="170" fill="#FB923C" fill-opacity="0.13"/>
  <circle cx="1370" cy="760" r="210" fill="#F97316" fill-opacity="0.1"/>

  <rect x="170" y="150" width="1260" height="600" rx="34" fill="#111827" fill-opacity="0.66" stroke="#FDBA74" stroke-opacity="0.34"/>

  <rect x="290" y="260" width="270" height="340" rx="28" fill="#0F172A" stroke="url(#lock)" stroke-opacity="0.75"/>
  <rect x="348" y="330" width="154" height="190" rx="18" fill="#FB923C" fill-opacity="0.15" stroke="#FDBA74"/>
  <path d="M382 330V292C382 250 416 216 458 216C500 216 534 250 534 292V330" stroke="#FDE68A" stroke-width="14" stroke-linecap="round"/>
  <circle cx="458" cy="416" r="24" fill="#FDE68A"/>

  <rect x="650" y="280" width="620" height="24" rx="12" fill="#FED7AA" fill-opacity="0.7"/>
  <rect x="650" y="330" width="530" height="18" rx="9" fill="#FDBA74" fill-opacity="0.42"/>
  <rect x="650" y="370" width="580" height="18" rx="9" fill="#FDBA74" fill-opacity="0.3"/>

  <text x="650" y="500" fill="#FFEDD5" font-family="Georgia, serif" font-size="56" font-weight="700">
    API Security Checklist
  </text>
  <text x="650" y="558" fill="#FDBA74" font-family="Arial, sans-serif" font-size="30" letter-spacing="1">
    PRODUCTION LAUNCHES 2026
  </text>
</svg>
